<mxfile host="app.diagrams.net" agent="Mozilla/5.0 (Windows NT 10.0; Win64; x64) AppleWebKit/537.36 (KHTML, like Gecko) Chrome/138.0.0.0 Safari/537.36" version="27.2.0">
  <diagram name="Page-1" id="BWPL9rb3qBQrqDvGLjc0">
    <mxGraphModel dx="1342" dy="728" grid="1" gridSize="10" guides="1" tooltips="1" connect="1" arrows="1" fold="1" page="1" pageScale="1" pageWidth="1100" pageHeight="850" math="0" shadow="0">
      <root>
        <mxCell id="0" />
        <mxCell id="1" parent="0" />
        <mxCell id="I94VoVTsdlZ4osIr2XME-14" style="rounded=0;orthogonalLoop=1;jettySize=auto;html=1;exitX=1;exitY=0.25;exitDx=0;exitDy=0;entryX=0;entryY=0.5;entryDx=0;entryDy=0;" edge="1" parent="1" source="I94VoVTsdlZ4osIr2XME-1" target="I94VoVTsdlZ4osIr2XME-4">
          <mxGeometry relative="1" as="geometry" />
        </mxCell>
        <mxCell id="I94VoVTsdlZ4osIr2XME-1" value="" style="shape=image;verticalLabelPosition=bottom;labelBackgroundColor=default;verticalAlign=top;aspect=fixed;imageAspect=0;image=data:image/jpeg,/9j/4AAQSkZJRgABAQEBLAEsAAD/4QCpRXhpZgAASUkqAAgAAAADAA4BAgBfAAAAMgAAABoBBQABAAAAkQAAABsBBQABAAAAmQAAAAAAAABDaXJjdWxhciBhcnJvdyBpY29uLiBSZWN5Y2xpbmcgYXJyb3dzIGJsYWNrIHN5bWJvbCBpc29sYXRlZCBvbiB3aGl0ZS4gVmVjdG9yIGlzb2xhdGVkIG9uIHdoaXRlLiwBAAABAAAALAEAAAEAAAD/4QXhaHR0cDovL25zLmFkb2JlLmNvbS94YXAvMS4wLwA8P3hwYWNrZXQgYmVnaW49Iu+7vyIgaWQ9Ilc1TTBNcENlaGlIenJlU3pOVGN6a2M5ZCI/Pgo8eDp4bXBtZXRhIHhtbG5zOng9ImFkb2JlOm5zOm1ldGEvIj4KCTxyZGY6UkRGIHhtbG5zOnJkZj0iaHR0cDovL3d3dy53My5vcmcvMTk5OS8wMi8yMi1yZGYtc3ludGF4LW5zIyI+CgkJPHJkZjpEZXNjcmlwdGlvbiByZGY6YWJvdXQ9IiIgeG1sbnM6cGhvdG9zaG9wPSJodHRwOi8vbnMuYWRvYmUuY29tL3Bob3Rvc2hvcC8xLjAvIiB4bWxuczpJcHRjNHhtcENvcmU9Imh0dHA6Ly9pcHRjLm9yZy9zdGQvSXB0YzR4bXBDb3JlLzEuMC94bWxucy8iICAgeG1sbnM6R2V0dHlJbWFnZXNHSUZUPSJodHRwOi8veG1wLmdldHR5aW1hZ2VzLmNvbS9naWZ0LzEuMC8iIHhtbG5zOmRjPSJodHRwOi8vcHVybC5vcmcvZGMvZWxlbWVudHMvMS4xLyIgeG1sbnM6cGx1cz0iaHR0cDovL25zLnVzZXBsdXMub3JnL2xkZi94bXAvMS4wLyIgIHhtbG5zOmlwdGNFeHQ9Imh0dHA6Ly9pcHRjLm9yZy9zdGQvSXB0YzR4bXBFeHQvMjAwOC0wMi0yOS8iIHhtbG5zOnhtcFJpZ2h0cz0iaHR0cDovL25zLmFkb2JlLmNvbS94YXAvMS4wL3JpZ2h0cy8iIHBob3Rvc2hvcDpDcmVkaXQ9IkdldHR5IEltYWdlcy9pU3RvY2twaG90byIgR2V0dHlJbWFnZXNHSUZUOkFzc2V0SUQ9IjEyODE2MzQyNzUiIHhtcFJpZ2h0czpXZWJTdGF0ZW1lbnQ9Imh0dHBzOi8vd3d3LmlzdG9ja3Bob3RvLmNvbS9sZWdhbC9saWNlbnNlLWFncmVlbWVudD91dG1fbWVkaXVtPW9yZ2FuaWMmYW1wO3V0bV9zb3VyY2U9Z29vZ2xlJmFtcDt1dG1fY2FtcGFpZ249aXB0Y3VybCIgcGx1czpEYXRhTWluaW5nPSJodHRwOi8vbnMudXNlcGx1cy5vcmcvbGRmL3ZvY2FiL0RNSS1QUk9ISUJJVEVELUVYQ0VQVFNFQVJDSEVOR0lORUlOREVYSU5HIiA+CjxkYzpjcmVhdG9yPjxyZGY6U2VxPjxyZGY6bGk+Vml0YWxpaSBCYXJpZGE8L3JkZjpsaT48L3JkZjpTZXE+PC9kYzpjcmVhdG9yPjxkYzpkZXNjcmlwdGlvbj48cmRmOkFsdD48cmRmOmxpIHhtbDpsYW5nPSJ4LWRlZmF1bHQiPkNpcmN1bGFyIGFycm93IGljb24uIFJlY3ljbGluZyBhcnJvd3MgYmxhY2sgc3ltYm9sIGlzb2xhdGVkIG9uIHdoaXRlLiBWZWN0b3IgaXNvbGF0ZWQgb24gd2hpdGUuPC9yZGY6bGk+PC9yZGY6QWx0PjwvZGM6ZGVzY3JpcHRpb24+CjxwbHVzOkxpY2Vuc29yPjxyZGY6U2VxPjxyZGY6bGkgcmRmOnBhcnNlVHlwZT0nUmVzb3VyY2UnPjxwbHVzOkxpY2Vuc29yVVJMPmh0dHBzOi8vd3d3LmlzdG9ja3Bob3RvLmNvbS9waG90by9saWNlbnNlLWdtMTI4MTYzNDI3NS0/dXRtX21lZGl1bT1vcmdhbmljJmFtcDt1dG1fc291cmNlPWdvb2dsZSZhbXA7dXRtX2NhbXBhaWduPWlwdGN1cmw8L3BsdXM6TGljZW5zb3JVUkw+PC9yZGY6bGk+PC9yZGY6U2VxPjwvcGx1czpMaWNlbnNvcj4KCQk8L3JkZjpEZXNjcmlwdGlvbj4KCTwvcmRmOlJERj4KPC94OnhtcG1ldGE+Cjw/eHBhY2tldCBlbmQ9InciPz4K/+0AsFBob3Rvc2hvcCAzLjAAOEJJTQQEAAAAAACUHAJQAA5WaXRhbGlpIEJhcmlkYRwCeABfQ2lyY3VsYXIgYXJyb3cgaWNvbi4gUmVjeWNsaW5nIGFycm93cyBibGFjayBzeW1ib2wgaXNvbGF0ZWQgb24gd2hpdGUuIFZlY3RvciBpc29sYXRlZCBvbiB3aGl0ZS4cAm4AGEdldHR5IEltYWdlcy9pU3RvY2twaG90b//bAEMACgcHCAcGCggICAsKCgsOGBAODQ0OHRUWERgjHyUkIh8iISYrNy8mKTQpISIwQTE0OTs+Pj4lLkRJQzxINz0+O//bAEMBCgsLDg0OHBAQHDsoIig7Ozs7Ozs7Ozs7Ozs7Ozs7Ozs7Ozs7Ozs7Ozs7Ozs7Ozs7Ozs7Ozs7Ozs7Ozs7Ozs7O//CABEIAmQCZAMBEQACEQEDEQH/xAAbAAEAAgMBAQAAAAAAAAAAAAAABQYDBAcBAv/EABUBAQEAAAAAAAAAAAAAAAAAAAAB/9oADAMBAAIQAxAAAAG5gAAAAAAAAAAAAAAAAAAAAAAAAAAAAAAAAAAAAAAAAAAAAAAAAAAAAAAAAAAAAAAAAAAAAAAAAAAAAAAAAAAAAAAAAAAAAAAAAAAAAAAAAAAAAAAAAAAAAAAAAAAAAAAAAAAAAAAAAAAAAAAAAAAAAAAAAAAAAAAAAAAAAAAAAAAAAAAAAAAAAAAAAAAAAAAAAAAAAAAAAAAAAAAAAAAAAAAAAAAAAAAAAAAAAAAAAAAAAAAAAAAAAAAAAAAAAAAAAAAAAAAAAAAAAAAAAAAAAAAAAAAAAAAAAAAAAAAAAAAAAAAAAAAAAAAAAAAAAAAAAAAAAAAAAAAAAAAAAAAAAAAAAAAAAAAAAAAAAAAAAAAAAAAAAAAAAAAAAAAAAAAAAAAAAAAAAAAAAAAAAAAAAAAAAAAAAAAAAAAAAAAAAAAAAAAAAAAAAAAAAAAAAAAAAAAAAAAAAAAAAAAAAAAAAAAAAAAAAAAAAAAAAAAAAAAAAAAAAAAAAAAAAAAAAAAAAAAAAAAAAAAAAAAAAAAAAAAAAAAAAAAAAAAAAAAAAAAAAAAAAAAAAAAAAAAAAAAAAAAAAAAAAAAAAAAAAAAAAAAAAAAAAAAAAAAAAAAAAAAAAAAAAAAAAAAAAAAxAygAAAAAAAAAAAAAAAAAAAAAAAAAAAAAAAAAAAAGgUSL/W2AAAAAAAAAAAAAAAAAAAAAAAAAAAAAAAAAAAADQOZxsl+qUAAAAAAAAAAAAAAAAAAAAAAAAAAAAAAAAAAAANA5nA+y71YQAAAAAAAAAAAAAAAAAAAAAAAAAAAAAAAADGRxoGqYjBFeABbKtx6AAAAAAAAAAAAAAAAAAAAAAAAAAAAAADAQBAxFHyAAAACdL1WQAAAAAAAAAAAAAAAAAAAAAAAAAAAAA1SqFdjGAAAAAACRLvXwSp6AAAAAAAAAAAAAAAAAAAAAAAAAAD5KuVKMYAAAAAAABKliqAi7VugAAAAAAAAAAAAAAAAAAAAAAAAA1ShxFAAAAAAAAAlidqnx8GQutWIAAAAAAAAAAAAAAAAAAAAAAAAEac/jWAAABskmb1ZzAVWAALGZqq0AAWqrgegAAAAAAAAAAAAAAAAAAAAAAGqRhWIiAADKWKrCSR6AaBzOAPS41iKlAAAFmq6HoAAAAAAAAAAAAAAAAAAAAAB4VsqMWuqZAHpZatpsAAA0DmcDKXups8IIpsagAALdVtAAAAAAAAAAAAAAAAAAAAABHlJiKBbarMYDZL3UuAAADQOZxuF/qQABhKTEAAAel/qbAAAAAAAAAAAAAAAAAAAAPgqZVY+QDcJyoWOhVtgAAAGgUmL7WwAADwqBVIAA2DpdbAAAAAAAAAAAAAAAAAAABDlJjSAABdqmzaAAAABjPT7AAAAKaVaAALIXegAAAAAAAAAAAAAAAAANcp0V0AAAE6X6gAAAAAAAAAB4c+iGAB6dLrfAAAAAAAAAAAAAAAAAMZRogjwAAAH0dQrZAAAAAAAAAABqnM4xAAsZeKAAAAAAAAAAAAAAAAAA1yCKpGoAAAW+rYAAAAAAAAAAAVQp8ADIdSrKDUNk+gAAAAAAAAAAAAAAADw5dGsAAAbh06vQAAAAAAAAAAYjl0YgAXChBR6dHoAAAAAAAAAAAAAAAARpzaAB9l1qFiFMZ0GpoAAAAAAAAAAApEVsAAAvFWMAAAAAAAAAAAAAAAAFYKXAAmToVDGQp8FhAAAAAAAAAAPCOKrEAAADKdSrIAAAAAAAAAAAAAAAACkFbgAW6raAAAAAAAAAAACMIAgo0wAAAWYutAAAAAAAAAAAAAAAAAc9iGABfangAAAAAAAAAAARZSYjgAAADpVSIAAAAAAAAAAAAAAAABzeIwAHRqlQAAAAAAAAAAAD5KsVOMYAAJQ6PQAAAAAAAAAAAAAAAAA5rEcADpFSYAAAAAAAAAAAABpFKiGAALxVjAAAAAAAAAAAAAAAAABzeIwAHRalgAAAAAAAAAAAAAeFcKhGuDMdRrIAAAAAAAAAAAAAAAAADn0QoAL5U+AAAAAAAAAAAAAAc0iw1oxXSy1cj7AAAAAAAAAAAAAAAAABSYrQALbVuAAAAAAAAAAAAABgOVwJcn6+ifMgAAAAAAAAAAAAAAAAAKyUqABLnRKAAAAAAAAAAAAAEGUCAPsmS/0AAAAAAAAAAAAAAAAABHHNYAH0dRrYAAAAAAAAAAAAAKNFdABYi80AAAAAAAAAAAAAAAAAB4cvjVABcKtYAAAAAAAAAAAAMBy+MYAL5U+AAAAAAAAAAAAAAAAAACmlWgAbJ02soAAAAAAAAAAABUSpQAMp1KsgAAAAAAAAAAAAAAAAAANEpkS1egG2eGEwmEwxM1PgAAAAAAAA0zmkYwAWarqAAAAAAAAAAAAAAAAAAACEKhEcAAADfOkVkAAAAAK8TBsgA+TncRQAPo6bW4AAAAAAAAAAAAAAAAAAADEVEq8AAAfZ0epEAAAAAHP4+DoVeg8KRFcAALPV0AAAAAAAAAAAAAAAAAAAABBFBgAAC6VZwAAAAAfJyyMJcKtZ8lLitAAG0dLrMAAAAAAAAAAAAAAAAAAAADAcsjwAA9L7U6AAAAACMObwPov1ViIYAA9Oh1LgAAAAAAAAAAAAAAAAAAAAA5tEaAAAT5cK3AAAAAVUp0AAAAC51aAAAAAAAAAAAAAAAAAAAAAACmlWgAAAfRPFiqWPsAAA5/EIAAAAWyreAAAAAAAAAAAAAAAAAAAAAACDKBAAAAAGQkjdNivTEakTVU6MQAAB6W+rUegAAAAAAAAAAAAAAAAAAAAAAwnK48JQzEKAAAAAAC5VTYAAAzl4qcAAAAAAAAAAAAAAAAAAAAAAAAObxpHSa2yuFPjAAAAAAZC1VUYAAAkjo1fYAAAAAAAAAAAAAAAAAAAAAAABTiRLAAYSrlZjAAAAATJ6QoAAALTVyAAAAAAAAAAAAAAAAAAAAAAAANc2AAAYyDIKIcwgAAtlZzXMJhjCYTCYTEeHQKmgAAAAAAAAAAAAAAAAAAAAAAAAAAAAeGiaJqmE8MhsG6SR9gAA8MR8mwAAAAAAAAAAAAAAAAAAAAAAAAAAAAAAAAAAAAAAAAAAAAAAAAAAAAAAAAAAAAAAAAAAAAAAAAAAAAAAAAAAAAAAAAAAAAAAAAAAAAAAAAAAAAAAAAAAAAAAAAAAAAAAAAAAAAAAAAAAAAAAAAAAAAAAAAAAAAAAAAAAAAAAAAAAAAAAAAAAAAAAAAAAAAAAAAAAAAAAAAAAAAAAAAAAAAAAAAAAAAAAAAAAAAAAAAAAAAAAAAAAAAAAAAAAAAAAAAAAAAAAAAAAAAAAAAAAAAAAAAAAAAAAAAAAAAAAAAAAAAAAAAAAAAAAAAAAAAAAAAAAAAAAAAAAAAAAAAAAAAAAAAAAAAAAAAAAAAAAAAAAAAAAAAAAAAAAAAAAAAAAAAAAAAAAAAAAAAAAAAAAAAAAAAAAAAAAAAAAAAAAAAAAAAAAAAAAAAAAAAAAAAAAAAAAAAAAAAAAAAAAAAAAAAAAAAAAAAAAAAAAAAAAAAAAAAAAAAAAAAAAAAAAAAAAAAAAAAAAAAAAAAAAAAAAAAAAAAAAAAAAAAAAAAAAAAAAAAAAAAAAAAAAAAAAAAAAAAAAAAAAAAAAAAAAAAAAAAAAAAAAAAAAAAAAAAAAAAAAAAAAAAAAAAf/xAArEAABBAECBQQCAgMAAAAAAAADAQIEBQAgUBESEzBAEBQVNDFgIaAiIyT/2gAIAQEAAQUC/p7EIghse0rP0ub9KJNJEfHkjkj/AEqb9LAHJHJDnDlt/SZv0vRrnMdAs2n/AERz2sR9lEZjrsCYt5nzhMLbkKLRAteH6AQwwtNdCbhbSUXHOVy9qDZOjYx7SM3s0gUdsm5e7HvcR3eiTSRHtP7oQrAbn7uqoiS7hEx73Ed4Ne2Qsi2dH6MSyNGyNLFKbukiQOMOZPLLXwoUB8t0maGANznPdjCOG+DaNPucyaOIw5ySCdgccxcZUSnY2jfnwbcPUMCDTBrFLk2zRG6a+05dxMRzEHDGMtmDoTNLBvK4FKR2Br4wdM36XqicVgVXJlsSV2K2x6e4S7dg8ecpC2CJLrvX85EqHvwQRgbqm/S9BjeV8GuZFT0lVQTYeMWM/VVT9tkzAxUl2BpXrTlQgziUJsAAkgkOvHFTsTfpZGiklEiwxxGaCDYVk6sdH11s33Itpc5rGy7jHOVy+sQ3t5NyH/KLFJLLHjDjD7M36UKASW4IRgHrsazhqAZwDBK04tnl2Io2SJZpTtUXhYVceOyMLtPYhGNajW9m0r+TVUSumXZSmGBku2IXs1B+lL8b8pYwval0IvBYcj3MbY383JLhzleqKi9hFVro5UODxpAGyAkG4RNFNI5D7KUAjIalC7JMd0Y2ulP/AB49zG4poY9RvG9Ci9CygAxF4psP4yQXrSNcU3t5P58cjEKMo1EXRXTxChmu24awkmyvB7iZsVgTpQtDWq5z6YDmmqJI8ex41yrP1ofj3QeU+umByR9iu38AaKoXUnej2MIhqiMTIUE0KR4xp8YOT7FstmoQ1KUbEGPYrt3GToo2eSawjAw125cLLOfs0oOY2x2y8bDRTt4QfIlQAyklQjRV7MEHt4mx2P8AM/RWJwr/ACVRHJLp0XHscN2quB15myT/AL2iu+h5ciKKS2XWljaqYHJH2SxThP0Vi8a/zZNaCThgEjv9BDUpWMQY9ktk4T9FM7jC818gjJobAExkupeP0pgcxWOR7Nku28JGijf5pn9MPpEsTRccKHaNK34+rY3kHsl2zjH0VhelO8y3L04Xq1zmOHILOlbLPH1YWhFVqgKhgeXcm55OilHzStmki6EnRSyOLfKKRAiI9SE0U4unD2a6BwfojmWOcb2kH5NzJ0jYpSMYg2bNMB7iNCr/AHafCiTPjILc9rVNzlp24yxgAYtzGxbsOLeJi3j8W6kZXHlSvDlSGxQPe4j9FNH5i7Qwft7OePpTexEiulHYxo2du0lujYA7ZAdCqjUnzFlm0NRXOigSNH2hzEfl2PgXW1qvdCipEB3LYnPOrpntTfnRZ2HWXTTxeZ+1W4+eFrqYXI3uKvBCv6pcqZvFMVeCWNn1dUYDpJhDaEe1GZ1Q/hdKLwWFZDkd2wJ0oPoiq10eyE+LNsXytSIqrXw/ah2ywH0puuJbFDgJQZKdq7JwH2quB09uux8CdhHK1QXBx4G0ilxHI5NdsTqTuzW1vHb7YfPB7bSPGrLOWzG3Z0z5x2fOLi3hcdby3ZVFKVpX9QvYr6vl3ArOoJU4LkGGss02tJG76f8ANR6xBId8KtZG3KwH0pwhuMSLHbFDkuoYXChIB/bY1SEuXIwWuDLWIdrke3cbsf8Asq4XQH6kEMzZNLhQkC7s1Q+pOtSdSd2KmbyruJQsNrcxr0NTxyYWoksx4iC10qMbhKhhSLRri0hsWmlJi1MxMWulpiw5KYoSpnBU9K2Z7oW9cOOPhRiY6niuxaMWfB58FiUbcbSx0xlbFZjWtYmrhiiGuNAJjv6dP//EABQRAQAAAAAAAAAAAAAAAAAAAMD/2gAIAQMBAT8BOU//xAAUEQEAAAAAAAAAAAAAAAAAAADA/9oACAECAQE/ATlP/8QAPRAAAQICBgYGCQMFAQEAAAAAAQIDABESICEiMVEwQVBSYXEEEBMyQEIUIzNygZKhorFggpE0YqDB4dHw/9oACAEBAAY/Av8AD2U4rBInAWgzB/Rj3uGLtqTimKbZ5jL9Fve4eqm2ZGN1YxT+invcPWFJMiNcBt265+f0JNSgnmY9rPlbF1CzFjH3R7FP8wpstpFISqhrpB5L/QE3FhI4xJlBXxNkd+gP7Ymoknjo6Dl5v8QFoMwduUnVgRJgUBmcYpLUVHjp7tqTimO16MsT3VR2Tw7FzJW2JkyEUOjWnfiktRUePgh6PZmdUUXLXfLKKJvoyMTbVzGsbVpuH/sS7qN3wc+63rVHo/RQKX4gqUZk6+oLQopIgNvXXM9R2nbas4Jim4Zn8aH1balfCLQlHMxeeHwEWvn5YW4HSaInhW7V+63lnHYdFsSLKQ/1WDPSDZqXtGTaabhwEB3pTgceWbJ4QqXdXeFaihJUeETeXQ4DGLGwTmq2q97hqSEB3pAmrUnKKNApZzGvQBl43NRy2gUsX1b2qO1UslWcI6SnFNv/ALUkIpv3Bu64otoCRXe9w9YQhM1GKa7zueXXSb9WvhhFFxMuOdcdHdPuH/Wzb6rd0YxLuo3R1udFXhiIU2fKeqg2mZifec3tC97h6qLY5nKJJtVrVnVoOJCgYLjV5v6ivQWfWJx47KpKIAGsxQ6N85ikozJqIcyNsI6QnBVhiijDWcooNjmc9E97hifdb1qig2mQ0BeYFnmTWS4jEQlxGB2RR7690RNxVmoaq/YqN5Nk4DaB/wB0ZQrA4wEpEgNEekMi75hlW7BRurw57GpuKoiKDNxGes6GgcHLPDyMTT7NWHCrMQlzXr57ENCVLVOKbg7XimJHQgjEQhweYeHU2rX9IU2rFNUsnBeHPY3rG0qj1Syj6wWlEE8NAtg6rw8QOkJGFiqqVpxSZwlYwUJ9frHAOET2GtzeOgQ5kbfEKQrBQlCm1YpMqtF5cqJsiTLc+KotcIGSbISDgLx2G4cxKqEjEwKKlJVKLknBwiS0lJ49QB7yLviEujzjQF04r/Gw20ZmdVOSb3XJaQocYuTbPCDeC21C3w95wE5Jtjs0tyAM5multOKjKEoTgkS2GhOSarrnw8TJTkzkm2JMtgcVR6x0nhoVPHBFg57EXwAqz3lHxMyKK94RfE07w0SEa8TsR3nVa8VIiYin0aw7hiitJSRqNdI8qbTsV73qrXLxknE8jrEUhfbzFYunFf42K7zqtf8A2vxylMKCXBiNUUXEyPWltOKjKEoTgkS2KriBVluq8c462og0jHY9LSAc9UU2L6MtfUp44IsEBQwOxUKzTVdb+PjVr3RPrl30bpik2aDv1jsgb67PjCU5CWxUL3VVUZKu+NKdazKpSSZEaxHR0OW0TsZxPCdUEYiEODzDxgbGCB9aqnNxOx1t5Gqpg6rR4tTisEiFLViozq09azPY6HxrsNVLqdUBacFeKHR0niqqltOKjKEoGCRLY629ernC/WUCk4Si90gxe6R9wi14H98Yg/zFBsmjkAYwcPwixpcWMfdFjKf5ixDYguOSDeqQx8GXD8BnBWozJql84IsHPZJl3H0/WHE8Z6EIGHmOUBCRIDSM0DbOcBxGBqkkyAizuJ7tUJFpMJbyx2SOBmIbc3hLQBKRMmKPmPeOlI3BKJK9mrHhV7Fo3Bic63pChYnu89llW4Z6D0hwXj3eGlnC17xn1ejOG0dzqmYLLBua1Z1g2nX9IS2jBOy1t7wlEq04CF3HPodK4cxLrCgZER2jqglSe8Ioput5Z1pDGL3tFY7NcHGegou+sR9RE21z4a9G21mZ6MdIdF7yjLZzbmYloZpMjwiTg7QfWLVUD/dE0kEcNARuCWiD7491Ozydwz0k0KKeRj2s+Yi1CDFrA+aPYfdFjKYsKU8hDrzzhUBZbClnzGehD3SBbqRtBSN4SiR6peQd4xSTfbzy0/FY/OgoNppGKa7zn42k4MzOA2gTJgNp+Jz6iti4rLUYouJKTpEoHmMoZYHPQUvKe8ICkmYO0m3cxKO1WPWK+gqUXEhQ4xS6Or9qoouIKTx0Sf7bYUNyzQ+juGw93aSaYnRMxXorSFDjE0TbPDCLsnBwi+hSeYruLUoAmwWwpfpBmozwix8fLFjqI8h+MezB/dHsDHsHPli1pY/bGHVRUfWJx47bti8yn+IspJ5GLHVCP6j7Y/qPti18/LFq1mLG58zEkgAcNBa2k/CKSW0pOYH+HV//xAAsEAEAAQIDBgYDAQEBAAAAAAABEQAhMUFxIDBQUWGBQJGhweHwELHR8WCg/9oACAEBAAE/If8Ax7TUXiKOHhk/43E2WesGg0nmY6v+NwKjmJk61Gyyue3/ABuHbukGVSLMly+f/CR53OCsfL5Fp7U5Xz/xpyfNUf2ZIttnIFgnv/aESRkeP6w2VMINBU0aQx6411MUp3bRN6umjw4ZOOR8ORm9qk+/L4UsQc1O/myz1g1Ew3HA0eWtSEjZwnR4wiEGK5VMgZiw7U/ccVeCXnIxsnWjgbfVNelQCdew0axLDF4qLIZkZ6KlJhwHvz8HLMg6nQqQkcXE1c2nbulWf4wsRJVgGEfTDxOR8ss/ilc8wMtG58xYsr7+elIw/dozzpRzs8EX2iCcLis/yVYSSVjttEuHC2WtDJJxDyzTnV5FakaC5BVkI+Q9dogs5CaiTDXpDxrqKCCDcYQgVcAoIBiZOqkydZe/luFd3Wf06cPUCVgKi2ZuR/aACbIsqF21LTAeewCgJXAKhVeSxfytOoZ7rDtsIFCIG7NP4SSGpWHpLu1TB8mTRty6OvDU7my4ilFvXP3z/NwxEHRs1iPwa/gVzw5GtDnGcjDTd47kjhSK8mNjsnWQJq7DP2kUZLNZUPsc+FOsWyUzIRzD9FJ04xW7sLkvkM6MwhkOeX3pUYoGPgKJwOZit3jFAHU6FCiH67eNatw5dTaTK759KeqzOnCJcPVMNWtMA4NsIgdmjBqxSMXNc92XsnA6UGA0AZbrMCufq2p/9I/LgzgfUzqZl+w6VjuLgWvNl4dBAkcRpof99y2UJIRkaLl2Dy4IlkiFxkp87qJjtUCETJ3LhwkjXNKHo5+HwuxZ5udEzDQ7MmbfkcGh2sF6kVPk2UCPEzuE7X0z4jHc8jk7LUQAVhhgfnGH6pfKoMZk34EoFbBSN5qaZbh8h8hnQgEZHw51TMViYBbMXrYGKmNClPUR6VLjroKiZPlpwOF28HvbZBmVgoSBQXEXSpRHWYfKuibBH4mJN1pl4iHVonU+NxBa7bRwP7jj/dmSpZV7ev56JsE1KI6zJ5NYULIsjkx4eXBHUUdXAGv5beBoBQZQAcD1R/N+NmynQ/t9vEvID6ypILqPlWFF1QeW5hlY7j4/fBIZyHps68Ht7eJdckY3fnWi0wndTAQzvvBF5P6bOoBfV8U5MmImNTKcxLdqW4wg25LJ8jOFZ9Pr4y/85NE8PSrmptQWu20cFier02dICerxziWwWbqZVJPlcnT84GgFFBABwWX856bOr09/HOjTSZk1LDs2L+UKu43I/tJDDUT7Hcfj91gjMnBdN/yfnZup0P6fbxsu5tMfwgT6phpypHaF7eozqxBa8zWPpXSC4Khvkef+bN4MXXf5jxsANl73YMLwyXKTs5MxzZ8uDQ0Xtal9lyoSRrASB7+MltmtX02ZYLeo/XgySQ0+RvGmWzI+/k8/F59wpMpQtm6D9JgcHiRY9/L702cSR4czMpV5KR8VO4Z8Zs4dAFYRIHBwzwTpYVPm0m770ezgVmvudfaHyr+lOhAQw9yoeGkP9oWI1QrNff41kdq2l/pH+1KMlhDLweOeW5ypjTldmLtjuvj98Jl4hT2/WmyZi733NpI35Co3TgN41ZTs5hl6023MOTy2TLAlXKpjItD32RRkQHOjPiLubnwmYuJJyqNTNdv93D9FwBnRy1vcx3sdtg9/vTyWX71CARkc/wA4Xakr6tZ/5tT+Surm4XDhcPZ77jIo2uTnvQZWAlp1cV/CK5gOZy/AMgBdWktDB9uG1q3nk50JEFBwsUM2iKKybUBYwzejIWFH6N7fO8Hvb8uiRImVYdoZi9Cnmbz+raBAqYAzo5gYr5dOG2Xsw977iBmCiIpZ4B23cZOI+3+7uNc2P6uHRqYz7f7uS7SwVDUSLntvNUKLyzHrXWxSncQk2D3++6mWXFs+rw+Oy4e333kwNzgqzyPImv0Xp70e0vhTlH70pmF1Vr7jutWa0JWM32pMbLuAKwErWoE2XV4gb+C0RrCMP4maS+H6pFn5LHVv79w+55bgipeWVR8HPy08StnaD3vUthwVdsi/MUkkNTAM37IrXHGe8xwAHesMnJ0LG4AYrfQoIApEz4lGIxH2/wBrI04OxOeVIpL/AF2TWjlmO6laWK/utRg2AdzF3le5PLiWDdHddtugZCSphe6eSp1PWYfJp6O2m2RGQTdQpkCsa93vlQ8TrJWAOl8a/QAVi/ZRrF+0mvV4VOMRqUKMlkocFfY58bQIAnWs+fMh+qwp9nOmevA0nJfetfT/AHWbOnyr9tYe1XuV1GuiahG2hxBr1GjXQjpH/wAdX//aAAwDAQACAAMAAAAQAAAAAAAAAAAAAAAAAAAAAAAAAAAAAAAAAAAAAAAAAAAAAAAAAAAAAAAAAAAAAAAAAAAAAAAAAAAAAAAAAAAAAAAAAAAAAAAAAAAAAAAAAAAAAAAAAAAAAAAAAAAAAAAAAAAAAAAAAAAAAAAAAAAAAAAAAAAAAAAAAAAAAAAAAAAAAAAAAAAAAAAAAAAAAAAAAAAAAAAAAAAAAAAAAAAAAAAAAAAAAAAAAAAAAAAAAAAAAAAAAAAAAAAAAAAAAAAAAAAAAAAAAAAAAAAAAAAAAAAAAAAAAAAAAAAAAAAAAAAAAAAAAAAAAAAAAAAAAAAAAAAAAAAAAAAAAAAAAAAAAAAAAAAAAAAAAAAAAAAAAAAAAAAAAAAAAAAAAAAAAAAAAAAAAAAAAAAAAAAAAAAAAAAAAAAAAAAAAAAAAAAAAAAAAAAAAAAAAAAAAAAAAAAAAAAAAAAAAAAAAAAAAAAAAAAAAAAAAAAAAAAAAAAAAAAAAAAAAAAAAAAAAAAAAAAAAAAAAAAAAAAAAAAAAAAAAAAAAAAAAAAAAAAAAAAAAAAAAAAAAAAAAAAAAAAAAAAAAAAAAAAAAAAAAAAAAAAAAAAAAAAAAAAAAAAAAAAAAAAAAAAAAAAAAAAAAAAEAAAAAAAAAAAAAAAAAAAAAAAAAAAAAAAAAAAAAE0AAAAAAAAAAAAAAAAAAAAAAAAAAAAAAAAAAAAAmQAAAAAAAAAAAAAAAAAAAAAAAAAAAAAAAAAAAAE20AAAAAAAAAAAAAAAAAAAAAAAAAAAAAAAAAEEgW2wAAAAAAAAAAAAAAAAAAAAAAAAAAAAAAAEG222222AAAAAAAAAAAAAAAAAAAAAAAAAAAAAAkW2222222ggAAAAAAAAAAAAAAAAAAAAAAAAAAEG22222222ymAAAAAAAAAAAAAAAAAAAAAAAAAAAW222222222m2gAAAAAAAAAAAAAAAAAAAAAAAAAW222ywE22ym22kAAAAAAAAAAAAAAAAAAAAAAAAC22yEgAm20G222EAAAAAAAAAAAAAAAAAAAAAAACG2QgAAE20EC222AAAAAAAAAAAAAAAAAAAAAAE202QAAAAm0AAi22yAAAAAAAAAAAAAAAAAAAAAE220QAAAAEUAAAk22ygAAAAAAAAAAAAAAAAAAAm222AAAAAAEAAAAA22yAAAAAAAAAAAAAAAAAAEW2222AAAAAAAAAAAG220AAAAAAAAAAAAAAAAAEW2222QAAAAAAAAAAAm22wAAAAAAAAAAAAAAAAAAEW222gAAAAAAAAAAAG2yAAgAAAAAAAAAAAAAAAAC222yAAAAAAAAAAAA220iQAAAAAAAAAAAAAAAAA22US0AAAAAAAAAAAG222wAAAAAAAAAAAAAAAAAm2yAEAAAAAAAAAAAk2222AAAAAAAAAAAAAAAAAE22AAAAAAAAAAAAAm2222QAAAAAAAAAAAAAAAAA22wAAAAAAAAAAAAC2222wAAAAAAAAAAAAAAAAAC22AAAAAAAAAAAAAEW22yAAAAAAAAAAAAAAAAAAW20AAAAAAAAAAAAAE222AAAAAAAAAAAAAAAAAAC22gAAAAAAAAAAAAAEm2QAAAAAAAAAAAAAAAAAAW20AAAAAAAAAAAAAAGiQAAAAAAAAAAAAAAAAAAG22AAAAAAAAAAAAAAE2UAAAAAAAAAAAAAAAAAAAm2yAAAAAAAAAAAAAAG2SAAAAAAAAAAAAAAAAAAE22QAAAAAAAAAAAAAC22wAAAAAAAAAAAAAAAAAAm22gAAAAAAAAAAAAE220AAAAAAAAAAAAAAAAAAAm2ygAAAAAAAAAAAAG22AAAAAAAAAAAAAAAAAAAEwAAAAUAAAAAAAAAC22gAAAAAAAAAAAAAAAAAAAA2222yAAAAAAAAAG22wAAAAAAAAAAAAAAAAAAAAg222yAAAAAAGwAm220AAAAAAAAAAAAAAAAAAAAAm222AAAAAAEWgm222gAAAAAAAAAAAAAAAAAAAAE222wAAAAAAm2G222AAAAAAAAAAAAAAAAAAAAAAC2222gAAAAE22222gAAAAAAAAAAAAAAAAAAAAAAG2222wgAAAW2222AAAAAAAAAAAAAAAAAAAAAAAE222222WAmm222ykAAAAAAAAAAAAAAAAAAAAAAAGy22222220222ygAAAAAAAAAAAAAAAAAAAAAAAASEG22222ym2220AAAAAAAAAAAAAAAAAAAAAAAAAgAAW2222S2222AAAAAAAAAAAAAAAAAAAAAAAAAgAAEi222wkmySSAAAAAAAAAAAAAAAAAAAAAAAAAAAAAAgEgEAAAAkAAAAAAAAAAAAAAAAAAAAAAAAAAAAAAAAAAAAAAAAAAAAAAAAAAAAAAAAAAAAAAAAAAAAAAAAAAAAAAAAAAAAAAAAAAAAAAAAAAAAAAAAAAAAAAAAAAAAAAAAAAAAAAAAAAAAAAAAAAAAAAAAAAAAAAAAAAAAAAAAAAAAAAAAAAAAAAAAAAAAAAAAAAAAAAAAAAAAAAAAAAAAAAAAAAAAAAAAAAAAAAAAAAAAAAAAAAAAAAAAAAAAAAAAAAAAAAAAAAAAAAAAAAAAAAAAAAAAAAAAAAAAAAAAAAAAAAAAAAAAAAAAAAAAAAAAAAAAAAAAAAAAAAAAAAAAAAAAAAAAAAAAAAAAAAAAAAAAAAAAAAAAAAAAAAAAAAAAAAAAAAAAAAAAAAAAAAAAAAAAAAAAAAAAAAAAAAAAAAAAAAAAAAAAAAAAAAAAAAAAAAAAAAAAAAAAAAAAAAAAAAAAAAAAAAAAAAAAAAAAAAAAAAAAAAAAAAAAAAAAAAAAAAAAAAAAAAAAAAAAAAAAAAAAAAAAAAAAAAAAAAAAAAAAAAAAAAAAAAAAAAAAAAAAAAAAAAAAAAAAAAAAAAAAAAAAAAAAAAAAAAAAAAAAAAAAAAAAAAAAAAAAAAAAH//EABQRAQAAAAAAAAAAAAAAAAAAAMD/2gAIAQMBAT8QOU//xAAUEQEAAAAAAAAAAAAAAAAAAADA/9oACAECAQE/EDlP/8QALBABAAECBAQGAwEBAQEAAAAAAREAITFBUWFxgZGhIDBQscHwEEDR4WCg8f/aAAgBAQABPxD/AMe1xEIUsGNHR+XyP/GfSaVdMV3zDR3qIswsG0H/ABf0mn4SzaYg6DMqaJKOvx1Ht/xX0mn5nRWWFULgUw+Hps6af8JsRFDvSiDP9YEd6RR3VB92rsc/4ijsNxSpnZUASJ8AoiMJglPP23FjQ+2+tAzAkRkT1/S1CJPAxeVKg+w/Zxe1IhN+y+VLXjFqeb5b/vYDHf1G3SjZ/L5H1yYBYl+GLtL5LxicDDurEzw9PXz75iuuYaO9RBjtpTp4rQd6Yu+SvdFNMJoZJPVzaDK4BqtNmKwbOHPi22aXSeKL+k2SDlenXwx0oIGy310bXHLWl2Rtjj2OGFQPJZPiHyW9VFrhHdtBnSBDr+zus3b9MtYch/pexUClwdzmrs5dqnBWWVfhsBSuEp5bNEn0tnlp6nMYBfX3Om6mk2GAGgyPJfIRzfdhQYhOgvSVDEvmJ7kopdNg+WhgRSiBMY+IVBp6Bq+5n3ppbY8I7Bv01pVVWVxXwuNWEb6R6b5Z7ACCJImfqAp4IkjccjvgUFogEAyLxj6FbHQlicHKXbxYdbHKgEnexznA70GvuWNjkFAAAGAeD6TTwJDeASroFYV4Xfc1u2B7QWbFocUwbPfyJ3jS+LU/RwwEQRkcH05EYEqsAUhg2Tt6u3GhJ3YxDJBgGxQpURmS7AHR8D8HQCVaFbtzCt/p4UOz2jfcuK8fH9Jp+VRbAu7ob1FBF4Tsf3+AQBGyOdGkRfM98nE71f2MK5arP38aKccR7n26aem3aEm+5GRu1cR1rZ4v/jb8xUMozKHuPNqT6fPRk8yH8JYa+AOqyKKpZ7FORvj5P0mn4LzQvaHqvxnVrM2d74NvCPkrnPM0d6tY1xiO+pv18QJEGRG40MYhEscr4u/H0o/6TABzqy8wujxsOL0pPVSspuvgFShAmbt2NGYOVxBK5k0EWmRf6nQqDKx5iL5X0mlEnZyH+h7FaT4cVqub40AiCNkc6IWpIfMOmp08UOSZGRzWyVK0jjNZjuNvSDyjwsH2uGNTPoZs+Ca7t/GBWFISq7pW5NRJrz8Qt/Lli/MiViVHjg8A0DyhcAkHi0mmpl7eFoEeZNtPktxD0YudwVdaBivCoWOsztccnC+9KpVVcV8iGjzs4Buvc5/rnAEgJE0qZ2VV1H8bcPClw4DCJg1LElDZGPXHn6ISV9wC7hetM1Qo0LUOBShbQhCcvJdIWbJGRqN+BA4A5In64taLuGA4NT49P5NnHw2DZUsAJ7k9D0aGVwk4cHEqUa4fP37tExMlUhuTJjHkY2ahdGw6w839gcFqIx+A25nhmaIdxmnnnZiSY/IjHdx5JaIMgQBCTqehOWAlXIpgHEGUrORHkG5YwTN27GjLAkTBP15cwBslCJG/EOPPHwvFvMU7IC+KlSJ+UZ0XepX+MbZa7zaRmbK3lMHiwc/Q7fnOv8leXhiWCeqsFHzYFii6rXZKgUfAeL4WlAli9d/xf1N3GGLpbk/sBHExOH7jp5FsOO3KwdWeh6HDLd0bCPfwgnDigW7h+VCllx3qRR4Yj9MEpzHBhAui5llx/WUCVgM6/wAUyi1jmlF52Hypgwx18YETtxLjyxqEAh2CPQ43bWG6fA8Jx11b1/ZDvDhCB0YsPFrRiT9pY6tPony9ig8m4nIXQu8peiLpWL6X58IFG/RY/ZLcDsexk+zSS4sFXjaOz5ONc/pnGTlY5eiTjQdAPjwibVuf7UOv4GQaI1DZjXBx5cG25TKiiATx3axtZBzYOfosrmvw/W3fuQYgZDgPxhS7wXwD2uOHitpx25WDqz0PRdwD1B+fCLtS5fuiCQ3KRxlG7SGLc6U9PsTcdVgn5MidmJceWNRpEOwR6LbeAPpPjwg0rwezHy/eNe8S0iBME40ds7MS1HF8+dRSFqntGDhfakQERhHEosdOOEV3lKmAiX1G49PRYTLXO6fx4THsQvX3P3RNIOjC0qlWVu/hxsW+CbvZhtQlQkwAe03OtXlA5ujhZyKAPATkB6LGCVG6B/o8JYuHsuz90EIBOH8COfgR5ExCcaJfirBERBhMQ9GuuFHyXtHPwoWABkjJUSctDLMcmT9wpUwTYXt7vDdAYDo8HY9GAgSJCOdIIQSebuuieErisa5sHJh5v7b8w576HNgqUAh3WfDgiXyf4Lz9HbGNRouuZPhXYJbLa5hNApN2z+0OQyBz+j08JuTtxLE0XcEOwR6PC0vZyufxzoGM589zHBmJyrqjj361rWfUitJuoaZhJ9sUxdVRBONO3wPen3PLdo2K5VH/AF42K74T0VmvmDPurY9+f6cEqFxi4H92GlSLuzXwtizBzC7y9JLeyIYF9OZLm1eHwnB/qOXkzY2lOLzcCiznnyDzCraLAiWzLpU0wbjfOW54X7EWgBitOFTU2nV7vtHhWGMbFLAVBGzCzbrr2D0mOMZ9Ef0U4NYGiNupO3Z5AWknXTQ2sp+gbGB/vm35D3GJd4cqlblA1ZHhntwoywJAyJ+VAoAXVyrXZiwsjZ38S3uU04nId3b0u8Af4N3y5eRG5FLF9zltx81L5ZHIKkrxVlKv4w8yVcTjMtuH4CO6hAGq1IBhizsNPdwx8IvQqY7Diqgo6fy7uPpcLMX7KSBowVCI5PiY4QgCRjUzqHmAGxxWTt7+bEEOcX8FeX5OEZaFGDVh5dILOIz/AHSoOk2DzX8YcfEb9QEqcAqfQRio5Hhnq8vTYPhy7/ZTl4xhkoE9kFbWy48HrUN+JXqVfnh5eMAR2EHu6eWsIHIcLmNXLT29Nw3FO6k7Lp5LBLlQHZKCE1pYjgx5nOhEVpHRbuUdYMCB5nkXnCfGJd0cvKSCTBfIWmh6ffkPcJl2ly8zej6XaiAFf6lJ70EG/CKFLl3CmTfFUA+3mUUakxpr7qRzRkgKAWMaYtguavkA3IgAlWp5SYEtp3duvqHY/VIlFdLBon4KW10bIbv9ofpExWdD84cPP1brurj728jIGwLDVcA3aIt/NvKGu/t6lHEOWT8lOVKKhz5djGhLFgV1xfuVAgCJCOdNLa6422rttSQrwDYajgnDzDH60KPmnTgqhkPyPTyG7MY2eo3Mf/tGUU9IHB9Sw4mZqpPd0rDLZhdMDi4vI8DM9qI3HEdygMwYyX+uvWkmRFg4HB5eVds5ZEHcVfY41BL3Xp5Oqutje1y34+pWEEswgITqX7ePGYUdOTSqdyXefCUuFMH2Q7LU59vy6+NGsARAu2eJ0p5azUlZyaLiOMU+1K4Nd+wPcVhH2XFrGj9izX2OmxXbQvxTUceCgSKJEYRqE6EFxyD878fW2rViCRqTXrGV6wqWef8A7GkPvZlFT+8oLr0y9sD5UgLWkTtRcCGfbZiiAxgAdvGHHFCa7+E+KLnolkHG4f8Ajq//2Q==;rotation=15;" vertex="1" parent="1">
          <mxGeometry x="450" y="230" width="242" height="242" as="geometry" />
        </mxCell>
        <mxCell id="I94VoVTsdlZ4osIr2XME-12" style="edgeStyle=orthogonalEdgeStyle;rounded=0;orthogonalLoop=1;jettySize=auto;html=1;exitX=1;exitY=0.5;exitDx=0;exitDy=0;entryX=0;entryY=0.5;entryDx=0;entryDy=0;" edge="1" parent="1" source="I94VoVTsdlZ4osIr2XME-2" target="I94VoVTsdlZ4osIr2XME-3">
          <mxGeometry relative="1" as="geometry" />
        </mxCell>
        <mxCell id="I94VoVTsdlZ4osIr2XME-2" value="Fase Perencanaan" style="rounded=0;whiteSpace=wrap;html=1;" vertex="1" parent="1">
          <mxGeometry x="80" y="340" width="120" height="60" as="geometry" />
        </mxCell>
        <mxCell id="I94VoVTsdlZ4osIr2XME-13" style="rounded=0;orthogonalLoop=1;jettySize=auto;html=1;exitX=1;exitY=0.5;exitDx=0;exitDy=0;" edge="1" parent="1" source="I94VoVTsdlZ4osIr2XME-3" target="I94VoVTsdlZ4osIr2XME-1">
          <mxGeometry relative="1" as="geometry" />
        </mxCell>
        <mxCell id="I94VoVTsdlZ4osIr2XME-3" value="Backlogs" style="rounded=0;whiteSpace=wrap;html=1;" vertex="1" parent="1">
          <mxGeometry x="270" y="340" width="120" height="60" as="geometry" />
        </mxCell>
        <mxCell id="I94VoVTsdlZ4osIr2XME-4" value="Fase Penutupan" style="rounded=0;whiteSpace=wrap;html=1;" vertex="1" parent="1">
          <mxGeometry x="790" y="340" width="120" height="60" as="geometry" />
        </mxCell>
        <mxCell id="I94VoVTsdlZ4osIr2XME-6" value="sprint planing" style="text;html=1;align=center;verticalAlign=middle;whiteSpace=wrap;rounded=0;" vertex="1" parent="1">
          <mxGeometry x="440" y="300" width="60" height="30" as="geometry" />
        </mxCell>
        <mxCell id="I94VoVTsdlZ4osIr2XME-7" value="deployment" style="text;html=1;align=center;verticalAlign=middle;whiteSpace=wrap;rounded=0;" vertex="1" parent="1">
          <mxGeometry x="460" y="420" width="60" height="30" as="geometry" />
        </mxCell>
        <mxCell id="I94VoVTsdlZ4osIr2XME-8" value="sprint review" style="text;html=1;align=center;verticalAlign=middle;whiteSpace=wrap;rounded=0;" vertex="1" parent="1">
          <mxGeometry x="620" y="395" width="60" height="30" as="geometry" />
        </mxCell>
        <mxCell id="I94VoVTsdlZ4osIr2XME-9" value="sprint development" style="text;html=1;align=center;verticalAlign=middle;whiteSpace=wrap;rounded=0;" vertex="1" parent="1">
          <mxGeometry x="520" y="250" width="60" height="30" as="geometry" />
        </mxCell>
        <mxCell id="I94VoVTsdlZ4osIr2XME-10" value="sprint testing" style="text;html=1;align=center;verticalAlign=middle;whiteSpace=wrap;rounded=0;" vertex="1" parent="1">
          <mxGeometry x="630" y="300" width="60" height="30" as="geometry" />
        </mxCell>
      </root>
    </mxGraphModel>
  </diagram>
</mxfile>
